#!OML:ASF X:\für Bonn\!DataBase\2005_08_12_Daniel\c3d\Daniel.ASF
:FULLY-SPECIFIED
:DEGREES
474
root 19.41 1.23517 0.605915 -1699.12 259.791 143.813
lowerback 27.239 -3.05172 0.158725
upperback 6.40259 -4.72233 -2.68904
thorax -8.14657 -2.54273 -1.45602
lowerneck -12.7438 1.66098 -4.61733
upperneck 4.39749 2.84492 0.890146
head 3.64034 1.33574 1.32411
rclavicle 1.31198e-013 -1.75632e-013
rhumerus -405.507 -9.73325 292.937
rradius 13.3105
rwrist 63.6557
rhand -8.067 739.103
rfingers 7.12502
rthumb 17.8444 709.902
lclavicle 1.31198e-013 -1.75632e-013
lhumerus -588.65 154.738 -487.023
lradius 17.2006
lwrist -56.4343
lhand -3.83952 -725.984
lfingers 7.12502
lthumb 21.9081 22.796
rfemur -508.336 -175.88 547.638
rtibia 11.1999
rfoot -57.8517 -14.3699
rtoes 37.4814
lfemur 17.0166 718.262 -17.0857
ltibia 39.632
lfoot 137.863 553.769
ltoes 25.3241
475
root 19.3998 1.23311 0.604443 -1699.04 259.766 143.733
lowerback 27.2674 -3.0535 0.10365
upperback 6.36606 -4.73891 -2.68002
thorax -8.19739 -2.54847 -1.40648
lowerneck -12.7477 1.68023 -4.60442
upperneck 4.45847 2.87166 0.865807
head 3.66223 1.34711 1.31651
rclavicle 6.83819e-014 -1.66159e-013
rhumerus -405.564 -9.68494 292.917
rradius 13.3359
rwrist 63.7749
rhand -8.08426 739.054
rfingers 7.12502
rthumb 17.8278 709.851
lclavicle 6.83819e-014 -1.66159e-013
lhumerus -588.673 154.883 -486.941
lradius 17.2021
lwrist -56.1021
lhand -3.88834 -725.933
lfingers 7.12502
lthumb 21.8612 22.8516
rfemur -508.337 -174.945 546.844
rtibia 11.4579
rfoot -57.7239 -13.8371
rtoes 37.457
lfemur 17.0281 718.56 -16.8472
ltibia 39.6598
lfoot 137.902 553.514
ltoes 25.5771
476
root 19.3876 1.23159 0.603905 -1699.01 259.758 143.703
lowerback 27.2788 -3.05777 0.0554448
upperback 6.3494 -4.75645 -2.6603
thorax -8.21694 -2.5556 -1.3501
lowerneck -12.8238 1.70098 -4.61011
upperneck 4.5514 2.90825 0.824983
head 3.7094 1.36127 1.30941
rclavicle -1.4233e-013 1.96157e-013
rhumerus -405.573 -9.4777 292.783
rradius 13.3741
rwrist 63.6705
rhand -8.09271 739.008
rfingers 7.12502
rthumb 17.8196 709.805
lclavicle -1.4233e-013 1.96157e-013
lhumerus -588.758 154.794 -487.024
lradius 17.1956
lwrist -56.027
lhand -3.92415 -725.934
lfingers 7.12502
lthumb 21.8268 22.8552
rfemur -508.353 -173.974 546.017
rtibia 11.7494
rfoot -57.3463 -13.3745
rtoes 37.5254
lfemur 17.0261 718.848 -16.6197
ltibia 39.7187
lfoot 137.974 553.302
ltoes 25.8778
477
root 19.3763 1.2294 0.603819 -1699.09 259.768 143.781
lowerback 27.3107 -3.05783 0.0418907
upperback 6.32978 -4.76062 -2.65965
thorax -8.25393 -2.55669 -1.33805
lowerneck -12.8591 1.71427 -4.57678
upperneck 4.59992 2.92648 0.779406
head 3.73389 1.36777 1.29084
rclavicle -1.20066e-013 1.66165e-013
rhumerus -405.603 -9.4823 292.767
rradius 13.3887
rwrist 63.7817
rhand -8.12722 738.955
rfingers 7.12502
rthumb 17.7864 709.749
lclavicle -1.20066e-013 1.66165e-013
lhumerus -588.822 154.746 -487.105
lradius 17.1913
lwrist -55.9172
lhand -3.97439 -725.923
lfingers 7.12502
lthumb 21.7786 22.8718
rfemur -508.378 -173.022 545.204
rtibia 12.0492
rfoot -56.7603 -13.0382
rtoes 37.4366
lfemur 17.0016 719.121 -16.4144
ltibia 39.8116
lfoot 138.098 553.153
ltoes 26.2528
478
root 19.3646 1.22652 0.603362 -1699.09 259.768 143.783
lowerback 27.3386 -3.05786 0.00976359
upperback 6.303 -4.76853 -2.64689
thorax -8.29456 -2.55888 -1.3007
lowerneck -12.8791 1.73939 -4.56012
upperneck 4.65538 2.9609 0.755973
head 3.75692 1.38297 1.28366
rclavicle -2.78299e-014 -4.73542e-014
rhumerus -405.612 -9.34357 292.661
rradius 13.3862
rwrist 63.7472
rhand -8.15593 738.893
rfingers 7.12502
rthumb 17.7588 709.684
lclavicle -2.78299e-014 -4.73542e-014
lhumerus -588.889 154.714 -487.161
lradius 17.1926
lwrist -55.7796
lhand -4.00705 -725.873
lfingers 7.12502
lthumb 21.7472 22.9253
rfemur -508.421 -172.106 544.417
rtibia 12.3734
rfoot -56.0623 -12.8843
rtoes 37.2806
lfemur 16.943 719.34 -16.2497
ltibia 39.9334
lfoot 138.225 553.009
ltoes 26.5675
479
root 19.3525 1.22353 0.603424 -1699.16 259.799 143.859
lowerback 27.3847 -3.05986 -0.00434096
upperback 6.27116 -4.7731 -2.62049
thorax -8.34997 -2.5595 -1.25857
lowerneck -12.92 1.76191 -4.56483
upperneck 4.73511 2.99769 0.720155
head 3.7926 1.39774 1.27716
rclavicle -4.29375e-014 5.684e-015
rhumerus -405.619 -9.02137 292.44
rradius 13.4336
rwrist 63.4816
rhand -8.13183 738.807
rfingers 7.12502
rthumb 17.782 709.6
lclavicle -4.29375e-014 5.684e-015
lhumerus -588.982 154.662 -487.222
lradius 17.1828
lwrist -55.6282
lhand -4.08384 -725.854
lfingers 7.12502
lthumb 21.6735 22.9524
rfemur -508.479 -171.25 543.699
rtibia 12.7117
rfoot -55.1099 -12.7319
rtoes 37.4342
lfemur 16.8813 719.506 -16.1108
ltibia 40.0733
lfoot 138.313 552.843
ltoes 26.8778
480
root 19.34 1.22043 0.604025 -1699.26 259.833 143.945
lowerback 27.4398 -3.06305 0.0196149
upperback 6.24474 -4.77126 -2.62291
thorax -8.40905 -2.55796 -1.27202
lowerneck -12.9262 1.77993 -4.50668
upperneck 4.78377 3.01761 0.667545
head 3.81184 1.40538 1.25127
rclavicle -2.14687e-014 -7.54481e-014
rhumerus -405.668 -9.02703 292.431
rradius 13.4429
rwrist 63.611
rhand -8.15686 738.777
rfingers 7.12502
rthumb 17.7579 709.567
lclavicle -2.14687e-014 -7.54481e-014
lhumerus -589.028 154.645 -487.308
lradius 17.1656
lwrist -55.5108
lhand -4.15072 -725.822
lfingers 7.12502
lthumb 21.6092 22.9924
rfemur -508.53 -170.377 542.958
rtibia 13.0486
rfoot -53.8043 -12.7164
rtoes 37.8264
lfemur 16.8165 719.671 -15.9736
ltibia 40.226
lfoot 138.435 552.696
ltoes 27.0962
